# AST/ASF file generated using VICON BodyLanguage
# -----------------------------------------------
:version 1.10
:name VICON
:units
  mass 1.0
  length 0.45
  angle deg
:documentation
   .ast/.asf automatically generated from VICON data using
   VICON BodyBuilder and BodyLanguage model FoxedUp or BRILLIANT.MOD
:root
   order TX TY TZ RX RY RZ
   axis XYZ
   position 0 0 0  
   orientation 0 0 0 
:bonedata
  begin
     id 1 
     name lhipjoint
     direction 0.624716 -0.669793 0.401383 
     length 2.38238 
     axis 0 0 0  XYZ
  end
  begin
     id 2 
     name lfemur
     direction 0.34202 -0.939693 0  
     length 6.4574  
     axis 0 0 20  XYZ
    dof rx ry rz
    limits (-160.0 20.0)
           (-70.0 70.0)
           (-60.0 70.0)
  end
  begin
     id 3 
     name ltibia
     direction 0.34202 -0.939693 0   
     length 7.68739   
     axis 0 0 20   XYZ
    dof rx
    limits (-10.0 170.0)
  end
  begin
     id 4 
     name lfoot
     direction 0.0681309 -0.187188 0.979959   
     length 2.46615   
     axis -90 7.62852e-016 20   XYZ
    dof rx rz
    limits (-45.0 90.0)
           (-70.0 20.0)
  end
  begin
     id 5 
     name ltoes
     direction 1.53566e-011 -4.21819e-011 1   
     length 1.2376   
     axis -90 7.62852e-016 20   XYZ
    dof rx
    limits (-90.0 20.0)
  end
  begin
     id 6 
     name rhipjoint
     direction -0.644473 -0.655875 0.393043   
     length 2.43293  
     axis 0 0 0  XYZ 
  end
  begin
     id 7 
     name rfemur
     direction -0.34202 -0.939693 0   
     length 6.7025   
     axis 0 0 -20   XYZ
    dof rx ry rz
    limits (-160.0 20.0)
           (-70.0 70.0)
           (-70.0 60.0)
  end
  begin
     id 8 
     name rtibia
     direction -0.34202 -0.939693 0   
     length 7.80547   
     axis 0 0 -20   XYZ
    dof rx
    limits (-10.0 170.0)
 end
 begin
     id 9 
     name rfoot
     direction -0.0756734 -0.207911 0.975216   
     length 2.40315  
     axis -90 -7.62852e-016 -20   XYZ
    dof rx rz
    limits (-45.0 90.0)
           (-20.0 70.0)
  end
  begin
     id 10 
     name rtoes
     direction -1.5353e-011 -4.21879e-011 1   
     length 1.20477   
     axis -90 -7.62852e-016 -20   XYZ
    dof rx
    limits (-90.0 20.0)
  end
  begin
     id 11 
     name lowerback
     direction 0.0160353 0.987463 -0.157037   
     length 2.18572   
     axis 0 0 0   XYZ
    dof rx ry rz
    limits (-20.0 45.0)
           (-30.0 30.0)
           (-30.0 30.0)
  end
  begin
     id 12 
     name upperback
     direction -0.00499661 0.999756 0.0215076   
     length 2.18016   
     axis 0 0 0   XYZ
    dof rx ry rz
    limits (-20.0 45.0)
           (-30.0 30.0)
           (-30.0 30.0)
  end
  begin
     id 13 
     name thorax
     direction -0.00921346 0.995333 0.0960619   
     length 2.24923   
     axis 0 0 0   XYZ
    dof rx ry rz
    limits (-20.0 45.0)
           (-30.0 30.0)
           (-30.0 30.0)
  end
  begin
     id 14 
     name lowerneck
     direction 0.0274184 0.991181 0.12965   
     length 1.70911   
     axis 0 0 0   XYZ
    dof rx ry rz
    limits (-20.0 45.0)
           (-30.0 30.0)
           (-30.0 30.0)
  end
  begin
     id 15 
     name upperneck
     direction 0.0015627 0.999959 -0.00893559   
     length 1.69312   
     axis 0 0 0   XYZ
    dof rx ry rz
    limits (-20.0 45.0)
           (-30.0 30.0)
           (-30.0 30.0)
  end
  begin
     id 16
     name head
     direction -0.00230242 0.999856 -0.0168327  
     length 1.80241  
     axis 0 0 0   XYZ
    dof rx ry rz
    limits (-20.0 45.0)
           (-30.0 30.0)
           (-30.0 30.0)
  end
  begin
     id 17 
     name lclavicle
     direction 0.955523 0.290741 -0.0494489  
     length 3.84275  
     axis 0 0 0   XYZ
    dof ry rz
    limits (-20.0 10.0)
           (0.0 20.0)
  end
  begin
     id 18 
     name lhumerus
     direction 1 -4.48967e-011 -3.18382e-028   
     length 5.17714   
     axis 180 -30 -90   XYZ
    dof rx ry rz
    limits (-60.0 90.0)
           (-90.0 90.0)
           (-90.0 90.0)
  end
  begin
     id 19
     name lradius
     direction 1 -4.48968e-011 -2.22911e-027   
     length 3.43679   
     axis 180 -30 -90   XYZ
    dof rx
    limits (-10.0 170.0)
  end
  begin
     id 20
     name lwrist
     direction 1 -4.48951e-011 -6.32245e-027   
     length 1.7184   
     axis 3.57107e-015 90 90   XYZ
    dof ry
    limits (-180.0 0.0)
 end
  begin
     id 21 
     name lhand
     direction 1 -4.48924e-011 -1.26431e-026   
     length 0.573117   
     axis 8.06912e-015 90 90   XYZ
    dof rx rz
    limits (-90.0 90.0)
           (-45.0 45.0)
  end
  begin
     id 22 
     name lfingers
     direction 1 -4.49001e-011 -2.52965e-026   
     length 0.462062   
     axis 1.61381e-014 90 90   XYZ
    dof rx
    limits (0.0 90.0)
  end
  begin
     id 23
     name lthumb
     direction 0.707107 -6.35008e-011 0.707107   
     length 0.663431   
     axis -90 45 -1.62303e-014   XYZ
    dof rx rz
    limits (-45.0 45.0)
           (-45.0 45.0)
  end
  begin
     id 24 
     name rclavicle
     direction -0.963917 0.256881 -0.0698287   
     length 3.73057  
     axis 0 0 0   XYZ 
    dof ry rz
    limits (-10.0 20.0)
           (-20.0 0.0)
  end
  begin
     id 25 
     name rhumerus
     direction -1 -4.48962e-011 -2.73982e-027  
     length 5.23908   
     axis 180 30 90   XYZ
    dof rx ry rz
    limits (-90.0 60.0)
           (-90.0 90.0)
           (-90.0 90.0)
  end
  begin
     id 26 
     name rradius
     direction -1 -4.48968e-011 -4.33218e-027   
     length 3.46485   
     axis 180 30 90   XYZ
    dof rx
    limits (-10.0 170.0)
  end
  begin
     id 27 
     name rwrist
     direction -1 -4.48989e-011 -6.32372e-027   
     length 1.73243   
     axis 3.57107e-015 -90 -90   XYZ
    dof ry
    limits (-180.0 0.0)
  end
  begin
     id 28
     name rhand
     direction -1 -4.48948e-011 -1.26448e-026   
     length 0.608752   
     axis 8.06912e-015 -90 -90   XYZ
    dof rx rz
    limits (-90.0 90.0)
           (-45.0 45.0)
  end
  begin
     id 29
     name rfingers
     direction -1 -4.48962e-011 -2.52913e-026   
     length 0.490792   
     axis 1.61381e-014 -90 -90   XYZ
    dof rx
    limits (0.0 90.0)
  end
  begin
     id 30
     name rthumb
     direction -0.707107 -6.34878e-011 0.707107   
     length 0.704682   
     axis -90 -45 1.62303e-014   XYZ
    dof rx rz
    limits (-45.0 45.0)
           (-45.0 45.0)
  end
:hierarchy
  begin
    root lhipjoint rhipjoint lowerback
    lhipjoint lfemur
    lfemur ltibia
    ltibia lfoot
    lfoot ltoes
    rhipjoint rfemur
    rfemur rtibia
    rtibia rfoot
    rfoot rtoes
    lowerback upperback
    upperback thorax
    thorax lowerneck lclavicle rclavicle
    lowerneck upperneck
    upperneck head
    lclavicle lhumerus
    lhumerus lradius
    lradius lwrist
    lwrist lhand lthumb
    lhand lfingers
    rclavicle rhumerus
    rhumerus rradius
    rradius rwrist
    rwrist rhand rthumb
    rhand rfingers
  end

#!OML:ASF G:\JayActor3\Patient Classification 1\Patient 1\Session 6\male.ASF
:FULLY-SPECIFIED
:DEGREES
29
root 5.98046 16.5503 -4.66344 111.892 -86.5047 -112.254
lowerback -2.59984 -0.623614 2.80495
upperback 0.667627 -0.93395 0.208625
thorax 2.102 -0.432654 -1.39868
lowerneck -7.88515 -0.600891 1.07281
upperneck 5.46265 -1.16758 3.075
head 3.1597 -0.44328 0.753776
rclavicle -1.94654e-014 -9.93923e-016
rhumerus 3.788 -13.0601 -28.1127
rradius 25.1708
rwrist 5.70094
rhand -10.1349 -6.57184
rfingers 7.12502
rthumb 15.8537 -35.9428
lclavicle -1.94654e-014 -9.93923e-016
lhumerus -3.37427 -2.93308 22.8102
lradius 29.5206
lwrist 26.5732
lhand -7.77045 19.8019
lfingers 7.12502
lthumb 18.1297 48.977
rfemur -6.73685 2.65398 23.5187
rtibia 30.6274
rfoot -23.8572 -11.8669
rtoes 1.94221
lfemur 2.85104 3.58274 -13.3184
ltibia 14.0688
lfoot -16.117 11.5048
ltoes -2.59232
30
root 5.98246 16.5504 -4.6617 111.942 -86.5521 -112.321
lowerback -2.60196 -0.626699 2.74908
upperback 0.664357 -0.935746 0.195171
thorax 2.10035 -0.43417 -1.38127
lowerneck -7.90076 -0.59243 1.08082
upperneck 5.48883 -1.15681 3.05618
head 3.17133 -0.437917 0.746878
rclavicle -1.22672e-014 2.18663e-015
rhumerus 4.06843 -13.3319 -27.8009
rradius 25.0552
rwrist 5.9301
rhand -10.0807 -6.52581
rfingers 7.12502
rthumb 15.906 -35.8926
lclavicle -1.22672e-014 2.18663e-015
lhumerus -3.11007 -2.90221 22.3432
lradius 29.5822
lwrist 26.9143
lhand -7.94806 20.047
lfingers 7.12502
lthumb 17.9588 49.2379
rfemur -6.72702 2.59496 23.4539
rtibia 30.6269
rfoot -23.8318 -11.8468
rtoes 1.87484
lfemur 2.86357 3.59277 -13.3703
ltibia 14.066
lfoot -16.1234 11.4693
ltoes -2.57196
31
root 5.98447 16.5501 -4.66074 111.902 -86.4649 -112.301
lowerback -2.57539 -0.605331 2.81762
upperback 0.646879 -0.909052 0.218455
thorax 2.06802 -0.420838 -1.39413
lowerneck -7.92803 -0.607409 1.0958
upperneck 5.54237 -1.17685 3.00772
head 3.19461 -0.448271 0.72756
rclavicle -5.11405e-015 6.75868e-015
rhumerus 4.24087 -13.3464 -27.4196
rradius 25.0178
rwrist 5.86079
rhand -10.0829 -6.62244
rfingers 7.12502
rthumb 15.9038 -35.9894
lclavicle -5.11405e-015 6.75868e-015
lhumerus -2.7979 -2.64177 21.9339
lradius 29.4688
lwrist 26.6953
lhand -7.5668 19.8028
lfingers 7.12502
lthumb 18.3256 48.9596
rfemur -6.70732 2.6511 23.5482
rtibia 30.6192
rfoot -23.8564 -11.86
rtoes 2.02294
lfemur 2.88092 3.56584 -13.2897
ltibia 14.0725
lfoot -16.136 11.526
ltoes -2.56211
32
root 5.98722 16.5504 -4.65812 111.977 -86.5175 -112.383
lowerback -2.58903 -0.616981 2.76882
upperback 0.644741 -0.922834 0.200834
thorax 2.07329 -0.428095 -1.38563
lowerneck -7.95846 -0.59036 1.09861
upperneck 5.58922 -1.15524 2.99211
head 3.21622 -0.437111 0.723277
rclavicle 7.4684e-015 2.98177e-015
rhumerus 4.52592 -13.5919 -27.1721
rradius 24.892
rwrist 6.02203
rhand -10.0957 -6.68748
rfingers 7.12502
rthumb 15.8915 -36.0554
lclavicle 7.4684e-015 2.98177e-015
lhumerus -2.58731 -2.59271 21.5115
lradius 29.576
lwrist 27.1506
lhand -7.83542 20.1757
lfingers 7.12502
lthumb 18.0672 49.3566
rfemur -6.7062 2.58922 23.4739
rtibia 30.6153
rfoot -23.8202 -11.8401
rtoes 1.85903
lfemur 2.86705 3.58878 -13.3528
ltibia 14.0887
lfoot -16.1232 11.498
ltoes -2.60913
33
root 5.98912 16.5496 -4.65712 111.996 -86.4947 -112.406
lowerback -2.62343 -0.620635 2.76241
upperback 0.651852 -0.929252 0.219481
thorax 2.10005 -0.431099 -1.3637
lowerneck -8.04461 -0.564946 1.04547
upperneck 5.67701 -1.12269 3.02695
head 3.26367 -0.41877 0.746175
rclavicle -9.03849e-015 1.33186e-014
rhumerus 4.70851 -13.5754 -26.8496
rradius 24.9085
rwrist 5.84237
rhand -10.0885 -6.73441
rfingers 7.12502
rthumb 15.8984 -36.1018
lclavicle -9.03849e-015 1.33186e-014
lhumerus -2.3783 -2.38629 21.1247
lradius 29.5462
lwrist 27.2035
lhand -7.84024 20.3375
lfingers 7.12502
lthumb 18.0626 49.5188
rfemur -6.69827 2.62008 23.4968
rtibia 30.5986
rfoot -23.8522 -11.8331
rtoes 1.99353
lfemur 2.83868 3.57313 -13.3366
ltibia 14.1325
lfoot -16.1423 11.5263
ltoes -2.62811
34
root 5.99139 16.5494 -4.65572 112.03 -86.4524 -112.447
lowerback -2.62978 -0.621362 2.79172
upperback 0.653755 -0.93184 0.231793
thorax 2.10524 -0.432052 -1.36769
lowerneck -8.14459 -0.548306 1.01896
upperneck 5.76206 -1.10319 3.03876
head 3.31262 -0.407124 0.756202
rclavicle 2.08879e-014 -7.95139e-015
rhumerus 4.9071 -13.6418 -26.5894
rradius 24.8727
rwrist 5.76924
rhand -10.1294 -6.82764
rfingers 7.12502
rthumb 15.8591 -36.1982
lclavicle 2.08879e-014 -7.95139e-015
lhumerus -2.1737 -2.20867 20.7164
lradius 29.4735
lwrist 27.1119
lhand -7.78646 20.422
lfingers 7.12502
lthumb 18.1143 49.5985
rfemur -6.69783 2.65887 23.539
rtibia 30.5936
rfoot -23.8573 -11.8602
rtoes 2.0077
lfemur 2.83654 3.58087 -13.2993
ltibia 14.1506
lfoot -16.1674 11.5266
ltoes -2.54321
